<svg xmlns="http://www.w3.org/2000/svg" width="54" height="44" viewBox="0 0 54 44">
    <path id="car-burst-solid" d="M15.376,8a1.439,1.439,0,0,0-1.334.9l-2.631,6.558L4.6,13.4a1.449,1.449,0,0,0-1.539.47,1.41,1.41,0,0,0-.125,1.586l3.535,6.124L.6,25.582a1.4,1.4,0,0,0-.582,1.48A1.428,1.428,0,0,0,1.19,28.143l7.044,1.081-.5,7.045a1.4,1.4,0,0,0,.806,1.374,1.461,1.461,0,0,0,1.593-.23l3.159-2.88.85-3.137.931-3.421a7.8,7.8,0,0,1,5.182-5.4l3.67-5.246a10.061,10.061,0,0,1,3.893-3.3,1.8,1.8,0,0,0-.116-.16,1.449,1.449,0,0,0-1.539-.47l-6.82,2.047L16.71,8.9A1.439,1.439,0,0,0,15.376,8ZM32.534,21.6,44.67,24.82a1.423,1.423,0,0,1,1.056,1.258l.412,5.007L28.1,26.3l2.882-4.13A1.442,1.442,0,0,1,32.534,21.6Zm-6.256-2.659L21.99,25.086a4.989,4.989,0,0,0-4.144,3.633l-.931,3.421L15.43,37.617l-.743,2.738a2.835,2.835,0,0,0,2.023,3.474l1.387.363a2.869,2.869,0,0,0,3.508-2l.743-2.738,22.134,5.875-.743,2.738a2.835,2.835,0,0,0,2.023,3.474l1.387.363a2.869,2.869,0,0,0,3.508-2l.743-2.738,1.477-5.486.931-3.421a4.957,4.957,0,0,0-1.754-5.2l-.609-7.444a7.114,7.114,0,0,0-5.281-6.274L34.011,16.126a7.186,7.186,0,0,0-7.742,2.818ZM24.756,30.554a2.126,2.126,0,0,1,1.522,2.605,2.152,2.152,0,0,1-2.631,1.507,2.126,2.126,0,0,1-1.522-2.605A2.152,2.152,0,0,1,24.756,30.554Zm19.5,7.373a2.136,2.136,0,0,1,1.509-1.6,2.163,2.163,0,0,1,2.138.567,2.112,2.112,0,0,1,.5,2.136,2.152,2.152,0,0,1-2.631,1.507,2.126,2.126,0,0,1-1.522-2.605Z" transform="translate(0.02 -8)" fill="#439250"/>
  </svg>
  