<svg width="54" height="54" viewBox="0 0 54 54" fill="none" xmlns="http://www.w3.org/2000/svg">
    <path fill-rule="evenodd" clip-rule="evenodd" d="M33.0285 22.3098C33.2496 22.3428 33.4727 22.3594 33.6962 22.3594C35.3341 22.3594 36.9256 21.4924 38.1807 19.9178C39.2976 18.5161 40.0739 16.6293 40.3692 14.6022C41.0674 9.78012 38.9401 5.61411 35.526 5.10996C35.305 5.07697 35.0819 5.0604 34.8584 5.06039C33.2226 5.0625 31.6279 5.9284 30.375 7.49989C29.257 8.90051 28.4765 10.7895 28.1854 12.8197C27.4872 17.6418 29.6145 21.8078 33.0285 22.3098ZM20.3048 22.3594C18.6679 22.3594 17.0753 21.4924 15.8203 19.9178C14.7023 18.5161 13.9218 16.6293 13.6307 14.6043C12.9325 9.78012 15.0598 5.61411 18.4739 5.11207C18.6949 5.07908 18.918 5.06251 19.1415 5.0625C20.7773 5.0625 22.372 5.9284 23.625 7.49989C24.7429 8.90051 25.5234 10.7895 25.8155 12.8176C26.5137 17.6418 24.3864 21.8078 20.9724 22.3098C20.7514 22.3428 20.5283 22.3594 20.3048 22.3594ZM51.7208 19.2744C51.1354 17.8833 50.163 16.8803 48.9079 16.3751L48.891 16.3688C48.3198 16.145 47.7116 16.0305 47.0981 16.0313H47.0306C44.1576 16.0745 41.2245 18.5161 39.7332 22.1073C38.6395 24.7335 38.514 27.5579 39.3978 29.6631C39.9821 31.0553 40.9566 32.0583 42.217 32.5635L42.2307 32.5688C42.802 32.7923 43.4102 32.9068 44.0237 32.9063C46.9241 32.9063 49.8877 30.4647 51.4065 26.826C52.4865 24.203 52.6057 21.3806 51.7208 19.2744ZM40.2416 34.7636C38.5846 33.7679 37.0184 32.8261 35.9954 31.1344C33.173 26.4516 31.4687 23.625 27 23.625C22.5312 23.625 20.8226 26.4516 17.994 31.1344C16.9699 32.8264 15.4027 33.7691 13.7424 34.7678L13.7373 34.7709L13.7371 34.7711C11.8313 35.9164 9.86231 37.0998 9.01226 39.4284C8.68179 40.2679 8.51531 41.163 8.52183 42.0652C8.52183 45.8568 11.475 48.9417 15.1031 48.9417C16.9751 48.9417 18.9675 48.2931 21.0758 47.6065C23.1029 46.9463 25.1985 46.2639 27.0105 46.2639C28.8225 46.2639 30.9128 46.9463 32.9326 47.6065L32.9895 47.6249C35.0724 48.3005 37.0364 48.9375 38.8968 48.9375C42.5197 48.9375 45.4675 45.8525 45.4675 42.0609C45.4705 41.1581 45.3005 40.2631 44.9666 39.4242C44.1166 37.0938 42.147 35.9093 40.2425 34.7641L40.2416 34.7636ZM11.784 32.5635L11.7692 32.5688C11.199 32.7923 10.5919 32.9067 9.97941 32.9063C7.08218 32.9063 4.11956 30.4636 2.6082 26.8291C1.51659 24.203 1.39214 21.3817 2.27597 19.2723C2.85921 17.8812 3.83269 16.875 5.08777 16.374L5.10253 16.3688C5.67375 16.1449 6.28197 16.0304 6.8955 16.0313C9.79273 16.0313 12.7553 18.4739 14.2667 22.1084C15.3583 24.7345 15.4828 27.5558 14.5989 29.6652C14.0157 31.0563 13.0422 32.0583 11.784 32.5635Z" fill="#AA691E"/>
    </svg>
    