<svg xmlns="http://www.w3.org/2000/svg" width="54" height="43.2" viewBox="0 0 54 43.2">
    <path id="head-side-cough-solid" d="M0,18.917A18.916,18.916,0,0,1,18.9,0h2.7A16.211,16.211,0,0,1,37.581,13.508a6.587,6.587,0,0,0,1.266,3.046l3.544,4.438A3.7,3.7,0,0,1,39.5,27H37.8v2.7l-9.18,1.147a1.853,1.853,0,0,0,.118,3.687L37.8,35.1v1.35a4.051,4.051,0,0,1-4.05,4.05H27v.675A2.02,2.02,0,0,1,24.975,43.2H8.1a2.7,2.7,0,0,1-2.7-2.7V34.366A6.426,6.426,0,0,0,3.957,30.5,18.916,18.916,0,0,1,0,18.917ZM29.7,18.9A2.7,2.7,0,1,0,27,16.2,2.7,2.7,0,0,0,29.7,18.9Zm9.45,13.5a2.025,2.025,0,1,1,2.025,2.025A2.025,2.025,0,0,1,39.15,32.4Zm12.825-2.025A2.025,2.025,0,1,1,49.95,32.4,2.025,2.025,0,0,1,51.975,30.375ZM49.95,40.5a2.025,2.025,0,1,1,2.025,2.025A2.025,2.025,0,0,1,49.95,40.5ZM46.575,26.325A2.025,2.025,0,1,1,44.55,28.35,2.025,2.025,0,0,1,46.575,26.325ZM49.95,24.3a2.025,2.025,0,1,1,2.025,2.025A2.025,2.025,0,0,1,49.95,24.3ZM46.575,34.425A2.025,2.025,0,1,1,44.55,36.45,2.025,2.025,0,0,1,46.575,34.425Z" fill="#3d3c3c"/>
  </svg>
  