<svg width="54" height="54" viewBox="0 0 54 54" fill="none" xmlns="http://www.w3.org/2000/svg">
<path fill-rule="evenodd" clip-rule="evenodd" d="M8.4375 10.125H13.5V8.4375C13.5029 5.64276 15.7678 3.37791 18.5625 3.375H35.4375C38.2322 3.37791 40.4971 5.64276 40.5 8.4375V10.125H45.5625C49.2887 10.1291 52.3084 13.1488 52.3125 16.875V43.875C52.3125 47.6029 49.2904 50.625 45.5625 50.625H8.4375C4.70958 50.625 1.6875 47.6029 1.6875 43.875V16.875C1.69157 13.1488 4.71127 10.1291 8.4375 10.125ZM18.5625 32.0625H25.3125V38.8125C25.3125 39.7445 26.068 40.5 27 40.5C27.932 40.5 28.6875 39.7445 28.6875 38.8125V32.0625H35.4375C36.3695 32.0625 37.125 31.307 37.125 30.375C37.125 29.443 36.3695 28.6875 35.4375 28.6875H28.6875V21.9375C28.6875 21.0055 27.932 20.25 27 20.25C26.068 20.25 25.3125 21.0055 25.3125 21.9375V28.6875H18.5625C17.6305 28.6875 16.875 29.443 16.875 30.375C16.875 31.307 17.6305 32.0625 18.5625 32.0625ZM16.875 10.125H37.125V8.4375C37.125 7.50552 36.3695 6.75 35.4375 6.75H18.5625C17.6305 6.75 16.875 7.50552 16.875 8.4375V10.125Z" fill="#812FD3"/>
</svg>
