<svg width="34" height="48" viewBox="0 0 34 48" fill="none" xmlns="http://www.w3.org/2000/svg">
<path fill-rule="evenodd" clip-rule="evenodd" d="M31.5789 17.8364C30.2723 14.3674 28.3672 11.1547 25.9501 8.34422C21.7672 3.50215 16.267 0.375 11.9375 0.375C11.4158 0.375389 10.9236 0.617058 10.6043 1.02962C10.285 1.44218 10.1744 1.97924 10.3048 2.48438C11.7677 8.07422 8.73547 12.7222 5.52605 17.6423C2.86719 21.7177 0.125 25.9269 0.125 30.75C0.125 40.0545 7.69555 47.625 17 47.625C26.3045 47.625 33.875 40.0545 33.875 30.75C33.875 26.1832 33.103 21.8389 31.5789 17.8364ZM20.4098 41.1587C19.3203 42.3189 17.9545 42.5625 17 42.5625C16.0455 42.5625 14.6797 42.3189 13.5902 41.1587C12.5007 39.9986 11.9375 38.1581 11.9375 35.8125C11.9375 33.161 12.8677 31.1423 13.7663 29.1912C14.2884 28.0584 14.821 26.9057 15.1374 25.6717C15.2056 25.3991 15.4051 25.1784 15.6694 25.0829C15.9337 24.9875 16.2281 25.0299 16.4547 25.196C17.4194 25.9424 18.2771 26.8175 19.0039 27.7969C20.9203 30.3281 22.0625 33.3255 22.0625 35.8125C22.0625 38.1581 21.4909 40.007 20.4098 41.1587Z" fill="#E93418"/>
</svg>
