<svg xmlns="http://www.w3.org/2000/svg" width="54" height="39.231" viewBox="0 0 54 39.231">
    <path id="box-open-solid" d="M4.812,34.039a1.4,1.4,0,0,1,1.437-.767l21.587,2.7,21.587-2.7a1.424,1.424,0,0,1,1.437.767l3.677,7.354a2.824,2.824,0,0,1-1.746,3.977L38.383,49.489a2.816,2.816,0,0,1-3.192-1.261L27.836,35.971,20.482,48.228a2.816,2.816,0,0,1-3.192,1.261l-14.4-4.118a2.828,2.828,0,0,1-1.755-3.977Zm23.121,7.575,4.841,8.06A5.644,5.644,0,0,0,39.167,52.2l11.243-3.21V63.713a4.243,4.243,0,0,1-3.21,4.109l-18,4.5a5.518,5.518,0,0,1-2.734,0l-18-4.5A4.26,4.26,0,0,1,5.261,63.7V48.978L16.513,52.2a5.649,5.649,0,0,0,6.393-2.522l4.832-8.06Z" transform="translate(-0.838 -33.26)" fill="#2b7480"/>
  </svg>
  