<svg xmlns="http://www.w3.org/2000/svg" width="54" height="54" viewBox="0 0 54 54">
  <path id="people-robbery-solid" d="M46.979,6.233A9.049,9.049,0,0,1,38.35,13.5a9.049,9.049,0,0,1-8.629-7.267L28.86,2.552a3.113,3.113,0,0,0-3.8-2.447A3.388,3.388,0,0,0,22.795,4.2l.851,3.681a16.176,16.176,0,0,0,7.66,10.5V50.625a3.139,3.139,0,1,0,6.261,0v-13.5h1.565v13.5a3.139,3.139,0,1,0,6.261,0V18.383a16.176,16.176,0,0,0,7.66-10.5L53.905,4.2A3.4,3.4,0,0,0,51.626.105,3.1,3.1,0,0,0,47.84,2.552l-.851,3.681ZM38.35,10.125a4.89,4.89,0,0,0,4.7-5.063,4.709,4.709,0,1,0-9.392,0A4.89,4.89,0,0,0,38.35,10.125Zm-31.306,0a4.89,4.89,0,0,0,4.7-5.063A4.89,4.89,0,0,0,7.044,0a4.89,4.89,0,0,0-4.7,5.063A4.89,4.89,0,0,0,7.044,10.125ZM6.261,13.5A6.525,6.525,0,0,0,0,20.25V50.625A3.256,3.256,0,0,0,3.131,54a3.256,3.256,0,0,0,3.131-3.375v-13.5H7.827v13.5A3.256,3.256,0,0,0,10.957,54a3.256,3.256,0,0,0,3.131-3.375V26.652l1.272,2.162A3.107,3.107,0,0,0,18,30.386h4.7a3.385,3.385,0,0,0,0-6.75H19.723l-3.659-6.212A7.682,7.682,0,0,0,9.46,13.5Z" fill="#4b00ce"/>
</svg>