<svg width="55" height="37" viewBox="0 0 55 37" fill="none" xmlns="http://www.w3.org/2000/svg">
    <g clip-path="url(#clip0_73_2591)">
    <path d="M55.0015 18.7631C53.6938 20.1543 52.2998 21.4743 51.1056 22.9586C50.1787 24.1084 49.1641 24.4573 47.717 24.4515C33.7528 24.3948 19.7887 24.4166 5.8246 24.4283C5.63257 24.4386 5.44079 24.4038 5.26427 24.3266C5.08776 24.2494 4.93129 24.132 4.80713 23.9834C3.28957 22.3165 1.75669 20.6631 0.20847 19.0233C0.109068 18.939 0.0407683 18.8232 0.014678 18.6947C-0.0114123 18.5662 0.00624103 18.4325 0.0647618 18.3154C1.08653 15.5708 2.08675 12.8189 3.11282 10.0772C3.2043 9.85414 3.3743 9.67337 3.58993 9.56982C11.4278 6.38327 19.2709 3.21078 27.1193 0.0523354C27.3837 -0.0293601 27.6679 -0.0165274 27.924 0.0886783C35.7034 3.22192 43.4771 6.37164 51.245 9.53784C51.5218 9.67216 51.7398 9.90511 51.8572 10.192C52.8473 12.8087 53.8044 15.4472 54.773 18.0755C54.8408 18.2375 54.917 18.3957 55.0015 18.5494V18.7631ZM27.4613 19.0728C27.878 18.3459 28.2761 17.7266 28.598 17.0681C28.8366 16.5826 29.1326 16.3863 29.6802 16.4285C30.4174 16.4837 31.1604 16.4415 31.9967 16.4415C31.5211 15.6086 31.1273 14.8788 30.6933 14.1737C30.6089 14.0612 30.5632 13.9239 30.5632 13.7827C30.5632 13.6415 30.6089 13.5041 30.6933 13.3916C31.1244 12.6735 31.5325 11.9379 31.9867 11.1427C31.11 11.1427 30.3383 11.1093 29.5724 11.1544C29.1096 11.182 28.861 11.0206 28.6541 10.6165C28.2991 9.92017 27.8881 9.25436 27.4584 8.50279C27.1293 9.08428 26.8002 9.52039 26.6048 10.0176C26.2455 10.9334 25.6678 11.3157 24.682 11.1573C24.1373 11.0715 23.5697 11.1427 22.933 11.1427C23.3038 11.7984 23.5654 12.3828 23.939 12.8872C24.4147 13.5312 24.4032 14.0734 23.9275 14.7131C23.551 15.2175 23.2894 15.8106 22.9316 16.443C23.8657 16.443 24.6705 16.4604 25.4738 16.443C25.6219 16.423 25.7724 16.4527 25.9022 16.5275C26.032 16.6024 26.1339 16.7182 26.1924 16.8573C26.5832 17.5653 26.9971 18.2616 27.4613 19.0728Z" fill="#0F80E9"/>
    <path d="M6.68237 27.705H48.2514C48.204 27.9041 48.1724 28.0742 48.1249 28.2414C46.7252 33.2204 42.2329 36.8648 37.1169 36.9346C30.6644 37.0218 24.2105 37.0218 17.7551 36.9346C12.6132 36.8605 8.02892 33.0604 6.73698 28.0379C6.71399 27.9492 6.7068 27.8591 6.68237 27.705Z" fill="#0F80E9"/>
    </g>
    <defs>
    <clipPath id="clip0_73_2591">
    <rect width="55" height="37" fill="white"/>
    </clipPath>
    </defs>
    </svg>
    