<svg xmlns="http://www.w3.org/2000/svg" width="54" height="43.475" viewBox="0 0 54 43.475">
    <path id="person-falling-burst-solid" d="M21.736,2.717a2.717,2.717,0,0,0-5.434,0v.832a8.07,8.07,0,0,1-5.086,7.506,13.535,13.535,0,0,0-8.5,12.566v6.266a2.717,2.717,0,1,0,5.434,0V23.621a8.2,8.2,0,0,1,.382-2.462L22.169,42.233a2.72,2.72,0,0,0,4.568-2.955L18.9,27.171h6.912l3.26,4.347a2.717,2.717,0,1,0,4.347-3.26l-3.668-4.891a4.078,4.078,0,0,0-3.26-1.63H20.42L15.6,14.927l-.017-.025A13.518,13.518,0,0,0,21.736,3.558V2.726ZM8.151,6.793a4.076,4.076,0,1,0-4.076,4.076A4.076,4.076,0,0,0,8.151,6.793ZM39.4,24.292l4.976,4.577a1.36,1.36,0,0,0,2.276-1.1l-.475-6.742L52.855,20a1.35,1.35,0,0,0,1.112-1.036,1.364,1.364,0,0,0-.552-1.418l-5.57-3.829L51.2,7.829a1.347,1.347,0,0,0-.119-1.52,1.366,1.366,0,0,0-1.46-.45L43.159,7.82l-2.5-6.283a1.362,1.362,0,0,0-2.53,0l-2.5,6.283L29.174,5.85A1.358,1.358,0,0,0,27.6,7.82l3.354,5.867-5.57,3.829a1.345,1.345,0,0,0-.552,1.418c.008.025.008.051.017.068h1.647a6.773,6.773,0,0,1,4.568,1.766l1.562.246-.1,1.511,3.074,4.1a6.214,6.214,0,0,1,.467.73Z" fill="#1f2a71"/>
  </svg>
  