<svg xmlns="http://www.w3.org/2000/svg" width="50.625" height="54" viewBox="0 0 50.625 54">
  <path id="user-ninja-solid" d="M25.312,27a14.388,14.388,0,0,1-13.786-9.418,4.5,4.5,0,0,1-.4.4,10.4,10.4,0,0,1-6.057,2.331,1.362,1.362,0,0,1-1.559-1.455,9.031,9.031,0,0,1,2.5-5.653,7.849,7.849,0,0,1,2.215-1.413,7.623,7.623,0,0,1-2.215-1.413,9.021,9.021,0,0,1-2.5-5.643A1.362,1.362,0,0,1,5.074,3.28a10.428,10.428,0,0,1,6.057,2.331,7.094,7.094,0,0,1,1.322,1.7A14.612,14.612,0,0,1,25.312,0C33.3,0,39.777,6.043,39.777,13.5S33.3,27,25.312,27ZM0,50.868C0,42.135,6.373,34.8,15.007,32.685a1.776,1.776,0,0,1,1.8.612l7.063,8.786a1.892,1.892,0,0,0,2.893,0L33.822,33.3a1.776,1.776,0,0,1,1.8-.612c8.633,2.12,15.007,9.45,15.007,18.183A3.25,3.25,0,0,1,47.269,54H3.356A3.25,3.25,0,0,1,0,50.868ZM18.08,10.125a1.756,1.756,0,0,0-1.808,1.688A1.756,1.756,0,0,0,18.08,13.5H32.545a1.756,1.756,0,0,0,1.808-1.687,1.756,1.756,0,0,0-1.808-1.688Z" fill="#f23b3b"/>
</svg>
